/* XPM */
static const char * icon_xpm[] = {
"32 32 586 2",
"  	c None",
". 	c #1C7952",
"+ 	c #217A54",
"@ 	c #1F7B53",
"# 	c #1B7853",
"$ 	c #4C9971",
"% 	c #8CC39A",
"& 	c #B1DAB2",
"* 	c #C0E3BC",
"= 	c #CEEBC5",
"- 	c #BFE3BC",
"; 	c #4A9872",
"> 	c #177651",
", 	c #61A981",
"' 	c #B1DCB6",
") 	c #BDE5BA",
"! 	c #B1E0AC",
"~ 	c #A8DD9F",
"{ 	c #A7DD9B",
"] 	c #A4DC96",
"^ 	c #B1DCB5",
"/ 	c #61A980",
"( 	c #358B64",
"_ 	c #9FD2AB",
": 	c #AFDFB3",
"< 	c #98D59A",
"[ 	c #90D28F",
"} 	c #94D490",
"| 	c #98D691",
"1 	c #9BD792",
"2 	c #9CD892",
"3 	c #8FD28F",
"4 	c #B0DFB4",
"5 	c #9ED2AB",
"6 	c #0C6F4D",
"7 	c #489B73",
"8 	c #A5D9B2",
"9 	c #93D39D",
"0 	c #83CD8B",
"a 	c #87CF8C",
"b 	c #8CD18E",
"c 	c #93D490",
"d 	c #95D590",
"e 	c #97D591",
"f 	c #94D39E",
"g 	c #489A73",
"h 	c #439870",
"i 	c #A1D8B0",
"j 	c #82CC92",
"k 	c #7AC989",
"l 	c #7FCB8A",
"m 	c #B2DDB7",
"n 	c #F5FAF5",
"o 	c #F1F8F1",
"p 	c #C4E5C4",
"q 	c #92D291",
"r 	c #91D38F",
"s 	c #8ED28E",
"t 	c #A3D9A5",
"u 	c #BFE3C1",
"v 	c #B5E0BA",
"w 	c #84CC8E",
"x 	c #83CC93",
"y 	c #449970",
"z 	c #2A875F",
"A 	c #93D2A9",
"B 	c #7AC990",
"C 	c #72C586",
"D 	c #77C888",
"E 	c #88CA94",
"F 	c #EEF6F0",
"G 	c #7FB485",
"H 	c #87BA8B",
"I 	c #D0E7D2",
"J 	c #E6F3E7",
"K 	c #89CD8B",
"L 	c #8BD08D",
"M 	c #93D396",
"N 	c #D8EEDA",
"O 	c #EAF4EB",
"P 	c #BDDCC0",
"Q 	c #D2E8D6",
"R 	c #D0E9D5",
"S 	c #76C687",
"T 	c #94D2A9",
"U 	c #2B8560",
"V 	c #11734F",
"W 	c #7DC59C",
"X 	c #78C894",
"Y 	c #69C284",
"Z 	c #6EC485",
"` 	c #72C486",
" .	c #A3D3AE",
"..	c #C2DCC7",
"+.	c #76BE81",
"@.	c #77BD80",
"#.	c #70AF77",
"$.	c #81B785",
"%.	c #7FC586",
"&.	c #A2D7A8",
"*.	c #EDF6EF",
"=.	c #B6D6BA",
"-.	c #6EAC75",
";.	c #6FB279",
">.	c #6BAD76",
",.	c #EEF6F1",
"'.	c #79C38B",
").	c #78C994",
"!.	c #7BC49B",
"~.	c #107450",
"{.	c #409B74",
"].	c #81CD9F",
"^.	c #60BF83",
"/.	c #64C184",
"(.	c #69C285",
"_.	c #6CC082",
":.	c #A6D2B1",
"<.	c #B6D8BE",
"[.	c #75C284",
"}.	c #7AC887",
"|.	c #78C284",
"1.	c #77BE81",
"2.	c #A1D4A9",
"3.	c #ECF6EF",
"4.	c #8BBC93",
"5.	c #6EB178",
"6.	c #76C082",
"7.	c #76C384",
"8.	c #71BD80",
"9.	c #DFEFE5",
"0.	c #7EC28F",
"a.	c #69C184",
"b.	c #3F9A72",
"c.	c #0E7351",
"d.	c #72C399",
"e.	c #61C18A",
"f.	c #5BBE82",
"g.	c #67BE81",
"h.	c #9ACBA8",
"i.	c #BDDCC6",
"j.	c #71C183",
"k.	c #76C787",
"l.	c #78C888",
"m.	c #96D1A1",
"n.	c #EBF5EF",
"o.	c #85B98E",
"p.	c #6FB97D",
"q.	c #74C183",
"r.	c #76C686",
"s.	c #74C687",
"t.	c #6DBD81",
"u.	c #EBF4EF",
"v.	c #6AB883",
"w.	c #63BF83",
"x.	c #278863",
"y.	c #71C799",
"z.	c #51BA80",
"A.	c #56BC81",
"B.	c #5FBF83",
"C.	c #62BD80",
"D.	c #7FBF94",
"E.	c #D3E7DB",
"F.	c #7FC793",
"G.	c #8DCF9E",
"H.	c #9CD4A9",
"I.	c #E9F3EE",
"J.	c #B4D4BE",
"K.	c #93C9A0",
"L.	c #8ACC9A",
"M.	c #80CA91",
"N.	c #70C586",
"O.	c #66BB7F",
"P.	c #7BB58E",
"Q.	c #5EB67C",
"R.	c #5FBE82",
"S.	c #71C89A",
"T.	c #258861",
"U.	c #43A47A",
"V.	c #5CBF8D",
"W.	c #4CB97F",
"X.	c #7AC899",
"Y.	c #ABDBBE",
"Z.	c #D3EADD",
"`.	c #EFF7F4",
" +	c #DBEEE4",
".+	c #D1E9DA",
"++	c #C3DDCC",
"@+	c #BFDECA",
"#+	c #C7E3D0",
"$+	c #D2EADB",
"%+	c #E3F1E9",
"&+	c #E8F4EE",
"*+	c #D0E9DA",
"=+	c #ACDABD",
"-+	c #81C298",
";+	c #5DBA80",
">+	c #5ABD82",
",+	c #5DBF8D",
"'+	c #42A47A",
")+	c #0B724E",
"!+	c #51B386",
"~+	c #4DBA84",
"{+	c #47B77E",
"]+	c #5BBD8A",
"^+	c #C1E3D2",
"/+	c #D7ECE1",
"(+	c #9CCDB1",
"_+	c #72B38C",
":+	c #C1DDCD",
"<+	c #82BB98",
"[+	c #ADD3BB",
"}+	c #B5D6C2",
"|+	c #57A570",
"1+	c #59A771",
"2+	c #58A570",
"3+	c #56A26F",
"4+	c #549F6D",
"5+	c #5BA374",
"6+	c #79B790",
"7+	c #9FCFB2",
"8+	c #CEE7D9",
"9+	c #DEEFE6",
"0+	c #9BD5B3",
"a+	c #57BC84",
"b+	c #0B714E",
"c+	c #09724F",
"d+	c #50B688",
"e+	c #43B67F",
"f+	c #41B37B",
"g+	c #C9E7D9",
"h+	c #95C9AF",
"i+	c #449B6C",
"j+	c #48A570",
"k+	c #4FAC76",
"l+	c #86C0A0",
"m+	c #CEE7DA",
"n+	c #DAEDE4",
"o+	c #5AA977",
"p+	c #5BB77D",
"q+	c #60BA82",
"r+	c #5BB87E",
"s+	c #5AB77C",
"t+	c #8FCCA8",
"u+	c #66B786",
"v+	c #4DA771",
"w+	c #489E6D",
"x+	c #60A981",
"y+	c #B2D9C5",
"z+	c #D2EADF",
"A+	c #60BD8F",
"B+	c #42B67D",
"C+	c #43B680",
"D+	c #51B78A",
"E+	c #0A714F",
"F+	c #09704E",
"G+	c #4DB989",
"H+	c #3BB37C",
"I+	c #4DB483",
"J+	c #D6EAE2",
"K+	c #3DA16F",
"L+	c #46B079",
"M+	c #4AB47C",
"N+	c #4DB57C",
"O+	c #53AD7B",
"P+	c #E7F3EE",
"Q+	c #83BC9C",
"R+	c #53B37A",
"S+	c #5FBB83",
"T+	c #DFF1E8",
"U+	c #6BC18E",
"V+	c #56B87D",
"W+	c #9ACFB2",
"X+	c #A6D7BC",
"Y+	c #4FB47B",
"Z+	c #4CB37B",
"`+	c #47AC76",
" @	c #3F9E6D",
".@	c #7DBC9D",
"+@	c #CDE8DC",
"@@	c #3DB17B",
"#@	c #4DBA8A",
"$@	c #08704D",
"%@	c #07714E",
"&@	c #44B686",
"*@	c #35B17B",
"=@	c #36A874",
"-@	c #CAE4D9",
";@	c #7DC7A3",
">@	c #43B57D",
",@	c #46B77E",
"'@	c #48B77D",
")@	c #77C29C",
"!@	c #E4F2EC",
"~@	c #95CDAF",
"{@	c #4FB57C",
"]@	c #5EB986",
"^@	c #E2F0EB",
"/@	c #E5F2ED",
"(@	c #6EBD91",
"_@	c #4EB47C",
":@	c #59AD7E",
"<@	c #D9ECE3",
"[@	c #50B57F",
"}@	c #49B87E",
"|@	c #45B57D",
"1@	c #40AF78",
"2@	c #39A26F",
"3@	c #D4E9E0",
"4@	c #47B282",
"5@	c #35B27B",
"6@	c #45B787",
"7@	c #07704D",
"8@	c #07714F",
"9@	c #3BAF80",
"0@	c #31B07B",
"a@	c #30A875",
"b@	c #4AA47C",
"c@	c #CBE6DA",
"d@	c #A6D8C1",
"e@	c #41B57E",
"f@	c #42B27B",
"g@	c #BFE1D0",
"h@	c #89C0A5",
"i@	c #D5EAE1",
"j@	c #4FB581",
"k@	c #47AC77",
"l@	c #5EA882",
"m@	c #66AD88",
"n@	c #46AA75",
"o@	c #49B47D",
"p@	c #45AC76",
"q@	c #B0D5C3",
"r@	c #7EC7A3",
"s@	c #40B57D",
"t@	c #3FB47E",
"u@	c #8DCEB0",
"v@	c #BFDFD1",
"w@	c #30A573",
"x@	c #32B07C",
"y@	c #3BAF81",
"z@	c #06704F",
"A@	c #06704E",
"B@	c #31A77A",
"C@	c #2FAF7C",
"D@	c #2CAB77",
"E@	c #2DA471",
"F@	c #32966A",
"G@	c #71B99A",
"H@	c #39AC77",
"I@	c #5EBC8F",
"J@	c #C7E3D8",
"K@	c #3BA171",
"L@	c #A0CEB8",
"M@	c #95D0B4",
"N@	c #41AF78",
"O@	c #40A873",
"P@	c #3FA772",
"Q@	c #42B079",
"R@	c #43B67D",
"S@	c #40B079",
"T@	c #6BB492",
"U@	c #B6DCCB",
"V@	c #3CB079",
"W@	c #52B98A",
"X@	c #C8E6DA",
"Y@	c #AFD8C7",
"Z@	c #3B9D74",
"`@	c #2BA674",
" #	c #30B07C",
".#	c #31A87A",
"+#	c #06704D",
"@#	c #22966D",
"##	c #2FB07E",
"$#	c #27AD78",
"%#	c #29AB76",
"&#	c #2CA673",
"*#	c #2C9E6E",
"=#	c #32A974",
"-#	c #90CDB1",
";#	c #85C0A6",
">#	c #37AB75",
",#	c #45A278",
"'#	c #D1E8DF",
")#	c #54B889",
"!#	c #3DB27B",
"~#	c #3DB17A",
"{#	c #3DB47C",
"]#	c #3BB07A",
"^#	c #3CA674",
"/#	c #D5EBE1",
"(#	c #3CAD7B",
"_#	c #3BA978",
":#	c #4BA47E",
"<#	c #279567",
"[#	c #27A370",
"}#	c #26AA76",
"|#	c #30B07F",
"1#	c #20976C",
"2#	c #0F7E5A",
"3#	c #30B082",
"4#	c #21AB77",
"5#	c #25AC77",
"6#	c #28AC78",
"7#	c #2AAB76",
"8#	c #2CAA75",
"9#	c #C2E2D5",
"0#	c #4BAA82",
"a#	c #31AB76",
"b#	c #32A672",
"c#	c #75B99B",
"d#	c #B5DECC",
"e#	c #38B07B",
"f#	c #37B27B",
"g#	c #36B27B",
"h#	c #35B07A",
"i#	c #31A873",
"j#	c #B4DAC9",
"k#	c #57B78D",
"l#	c #2BA672",
"m#	c #28A16F",
"n#	c #26A673",
"o#	c #25AA76",
"p#	c #0F7D5A",
"q#	c #046E4D",
"r#	c #28A87C",
"s#	c #20AB78",
"t#	c #1FAA76",
"u#	c #22AB77",
"v#	c #24AC77",
"w#	c #30AA79",
"x#	c #D0E7DE",
"y#	c #29A171",
"z#	c #2CAC78",
"A#	c #2DAA76",
"B#	c #2B9C6D",
"C#	c #A8D3C2",
"D#	c #89CCB1",
"E#	c #30AF7A",
"F#	c #30AF79",
"G#	c #2FAF79",
"H#	c #2EAF79",
"I#	c #2BA774",
"J#	c #94CAB5",
"K#	c #6ABD9C",
"L#	c #24AB76",
"M#	c #21AB79",
"N#	c #27A77B",
"O#	c #118760",
"P#	c #26AE7E",
"Q#	c #18A875",
"R#	c #1BA976",
"S#	c #1EA976",
"T#	c #3AAC80",
"U#	c #BBDDCF",
"V#	c #23A572",
"W#	c #26AC78",
"X#	c #27AC78",
"Y#	c #2F9A6F",
"Z#	c #BFE0D3",
"`#	c #6BC09E",
" $	c #29AD78",
".$	c #28AD78",
"+$	c #25A774",
"@$	c #87C5AC",
"#$	c #6FBDA0",
"$$	c #20A774",
"%$	c #1EAA76",
"&$	c #118860",
"*$	c #036E4C",
"=$	c #1EA176",
"-$	c #1AA979",
";$	c #15A774",
">$	c #18A774",
",$	c #26A176",
"'$	c #C6E4D7",
")$	c #20A473",
"!$	c #20AA76",
"~$	c #23AA79",
"{$	c #6BC2A2",
"]$	c #45B188",
"^$	c #399C76",
"/$	c #C0E1D4",
"($	c #67C09E",
"_$	c #22AA77",
":$	c #21AA77",
"<$	c #1FA573",
"[$	c #91CBB5",
"}$	c #5FB696",
"|$	c #19A573",
"1$	c #1BA979",
"2$	c #1DA176",
"3$	c #036F4C",
"4$	c #067853",
"5$	c #1DA77B",
"6$	c #15A776",
"7$	c #11A474",
"8$	c #139C6E",
"9$	c #94CAB7",
"0$	c #98D2BE",
"a$	c #7DC9AD",
"b$	c #B8DFD0",
"c$	c #9ED2BF",
"d$	c #2CA479",
"e$	c #1A9D6E",
"f$	c #329974",
"g$	c #B4DCCD",
"h$	c #8FCFB7",
"i$	c #35B084",
"j$	c #31AC80",
"k$	c #C1E1D5",
"l$	c #2BA178",
"m$	c #14A372",
"n$	c #11A574",
"o$	c #14A776",
"p$	c #09825C",
"q$	c #1CA87C",
"r$	c #11A575",
"s$	c #0C9E6E",
"t$	c #149067",
"u$	c #5BB294",
"v$	c #68B89D",
"w$	c #369C79",
"x$	c #118D63",
"y$	c #149C6D",
"z$	c #14A271",
"A$	c #149B6C",
"B$	c #1A8F65",
"C$	c #72BCA2",
"D$	c #BDE0D3",
"E$	c #5CAE92",
"F$	c #0E9A6C",
"G$	c #0DA372",
"H$	c #08825A",
"I$	c #026B4B",
"J$	c #09825D",
"K$	c #1EA87D",
"L$	c #13A578",
"M$	c #089A6D",
"N$	c #099266",
"O$	c #0A9065",
"P$	c #0C986A",
"Q$	c #0EA272",
"R$	c #0EA473",
"S$	c #0EA171",
"T$	c #0D9B6D",
"U$	c #0B9065",
"V$	c #0A885F",
"W$	c #0A865E",
"X$	c #089C6E",
"Y$	c #13A679",
"Z$	c #097755",
"`$	c #1FA179",
" %	c #20A980",
".%	c #0DA174",
"+%	c #059E6F",
"@%	c #06A070",
"#%	c #07A271",
"$%	c #07A272",
"%%	c #07A171",
"&%	c #079E6E",
"*%	c #069B6C",
"=%	c #059A6C",
"-%	c #0D9F73",
";%	c #20AA81",
">%	c #0A7856",
",%	c #0B6C4D",
"'%	c #148662",
")%	c #26A680",
"!%	c #27AC84",
"~%	c #1BA77C",
"{%	c #10A376",
"]%	c #0CA374",
"^%	c #148762",
"/%	c #096E4F",
"(%	c #2B6755",
"_%	c #0B6D4F",
":%	c #137B5C",
"<%	c #1D9370",
"[%	c #27A37C",
"}%	c #2DA983",
"|%	c #33AE88",
"1%	c #127A5B",
"2%	c #226853",
"3%	c #126B51",
"4%	c #096C4C",
"5%	c #096C4E",
"                                                                ",
"                          . + @ @ + .                           ",
"                    # $ % & * = = - & % ; #                     ",
"                > , ' ) ! ~ { ] ] { ~ ! ) ^ / #                 ",
"              ( _ : < [ } | 1 2 2 1 | } 3 < 4 5 (               ",
"          6 7 8 9 0 a b [ c d e e d c [ b a 0 f 8 g 6           ",
"          h i j k l m n o p q r r [ s t u v w k x i y           ",
"        z A B C D E F G H I J K L M N O P Q R S C B T U         ",
"      V W X Y Z `  ...+.@.#.$.%.&.*.=.-.;.>.,.'.Z Y ).!.~.      ",
"      {.].^./.(._.:.<.[.}.|.1.2.3.4.5.6.7.8.9.0.a./.^.].b.      ",
"    c.d.e.f.^./.g.h.i.j.k.l.m.n.o.p.q.r.s.t.u.v.w.^.f.e.d.c.    ",
"    x.y.z.A.f.B.C.D.E.F.G.H.I.J.K.L.M.N.Z O.P.Q.R.f.A.z.S.T.    ",
"    U.V.W.z.A.X.Y.Z.`. +.+`.++@+#+$+%+&+*+=+-+;+>+A.z.W.,+'+    ",
"  )+!+~+{+]+^+/+(+_+:+<+[+}+|+1+2+3+4+5+6+7+8+9+0+a+W.{+~+!+b+  ",
"  c+d+e+f+g+h+i+j+k+l+m+n+o+p+q+q+r+s+t+u+v+w+x+y+z+A+B+C+D+E+  ",
"  F+G+H+I+J+K+L+M+N+O+P+Q+R+S+/+T+U+V+W+X+Y+Z+`+ @.@+@@@H+#@$@  ",
"  %@&@*@=@-@;@>@,@'@)@!@~@{@]@^@/@(@_@:@<@[@}@|@1@2@3@4@5@6@7@  ",
"  8@9@0@a@b@c@d@e@f@g@h@i@j@k@l@m@n@o@p@q@r@>@s@t@u@v@w@x@y@z@  ",
"  A@B@C@D@E@F@G@H@I@J@K@L@M@N@O@P@Q@R@S@T@U@V@W@X@Y@Z@`@ #.#+#  ",
"    @###$#%#&#*#=#-#;#>#,#'#)#!#~#{#{#]#^#/#(#_#:#<#[#}#|#1#    ",
"    2#3#4#5#6#7#8#9#0#a#b#c#d#e#f#f#g#h#i#j#k#l#m#n#o#4#3#p#    ",
"    q#r#s#t#u#v#w#x#y#z#A#B#C#D#E#F#G#H#I#J#K#}#L#u#t#M#N#q#    ",
"      O#P#Q#R#S#T#U#V#W#X#n#Y#Z#`# $.$$#+$@$#$$$%$R#Q#P#&$      ",
"      *$=$-$;$>$,$'$)$!$~${$]$^$/$($_$:$<$[$}$|$Q#;$1$2$3$      ",
"        4$5$6$7$8$9$0$a$b$c$d$e$f$g$h$i$j$k$l$m$n$o$5$4$        ",
"          p$q$r$s$t$u$v$w$x$y$z$A$B$C$b$D$E$F$G$r$q$H$          ",
"          I$J$K$L$M$N$O$P$s$Q$R$S$T$U$V$W$N$X$Y$K$J$I$          ",
"              Z$`$ %.%+%@%#%$%$%$%%%&%*%=%-%;%`$>%              ",
"                ,%'%)%!%~%{%]%%%%%]%{%~%!%)%^%/%                ",
"                  (%_%:%<%[%}%|%|%}%[%<%1%_%(%                  ",
"                        2%3%_%4%5%_%3%2%                        ",
"                                                                "};
